<svg height="496pt" viewBox="0 -22 496 496" width="496pt" xmlns="http://www.w3.org/2000/svg"><path d="m361.839844 8h-7.839844c-36.800781 0-71.761719 16.078125-95.761719 44.078125l-10.238281 11.921875-10.238281-11.921875c-24-28-58.960938-44.078125-95.761719-44.078125h-7.839844c-34.800781 0-66.398437 14.078125-89.199218 36.960938-22.882813 22.800781-36.960938 54.398437-36.960938 89.199218 0 32 12.160156 62.878906 34.078125 86.238282l13.042969 13.921874 125.359375 133.679688 67.519531 72 67.519531-72 125.359375-133.679688 13.042969-13.921874c10.957031-11.679688 19.519531-25.199219 25.277344-39.917969 5.761719-14.558594 8.800781-30.320313 8.800781-46.320313 0-69.679687-56.480469-126.160156-126.160156-126.160156zm0 0" fill="#ef7385"/><path d="m328 240v-16c0-8.800781 7.199219-16 16-16h47.199219c10.878906 0 21.441406 3.679688 29.921875 10.480469l19.757812 15.839843 7.121094 5.679688h40v96h-40l-26.878906 21.519531c-8.480469 6.800781-19.042969 10.480469-29.921875 10.480469h-79.199219c-8.800781 0-16-7.199219-16-16 0-4.398438 1.761719-8.398438 4.71875-11.28125 2.882812-2.957031 6.882812-4.71875 11.28125-4.71875h-32c-4.398438 0-8.398438-1.761719-11.28125-4.71875-2.957031-2.882812-4.71875-6.882812-4.71875-11.28125 0-8.800781 7.199219-16 16-16h-16c-4.398438 0-8.398438-1.761719-11.28125-4.71875-2.957031-2.882812-4.71875-6.882812-4.71875-11.28125 0-8.800781 7.199219-16 16-16h16c-4.398438 0-8.398438-1.761719-11.28125-4.71875-2.957031-2.882812-4.71875-6.882812-4.71875-11.28125 0-8.800781 7.199219-16 16-16zm0 0" fill="#f0d0b4"/><path d="m216 272h16c8.800781 0 16 7.199219 16 16 0 4.398438-1.761719 8.398438-4.71875 11.28125-2.882812 2.957031-6.882812 4.71875-11.28125 4.71875h-16c8.800781 0 16 7.199219 16 16 0 4.398438-1.761719 8.398438-4.71875 11.28125-2.882812 2.957031-6.882812 4.71875-11.28125 4.71875h-32c4.398438 0 8.398438 1.761719 11.28125 4.71875 2.957031 2.882812 4.71875 6.882812 4.71875 11.28125 0 8.800781-7.199219 16-16 16h-79.199219c-10.878906 0-21.441406-3.679688-29.921875-10.480469l-26.878906-21.519531h-40v-96h40l7.121094-5.679688 19.757812-15.839843c8.480469-6.800781 19.042969-10.480469 29.921875-10.480469h47.199219c8.800781 0 16 7.199219 16 16v16h48c8.800781 0 16 7.199219 16 16 0 4.398438-1.761719 8.398438-4.71875 11.28125-2.882812 2.957031-6.882812 4.71875-11.28125 4.71875zm0 0" fill="#f0d0b4"/><path d="m459.71875 225.855469c23.402344-24.953125 36.28125-57.527344 36.28125-91.726563 0-73.960937-60.167969-134.128906-134.128906-134.128906h-7.863282c-39.199218 0-76.320312 17.070312-101.832031 46.832031l-4.175781 4.871094-4.175781-4.871094c-25.511719-29.761719-62.632813-46.832031-101.832031-46.832031h-7.863282c-73.960937 0-134.128906 60.167969-134.128906 134.128906 0 34.199219 12.878906 66.78125 36.28125 91.734375l5.75 6.136719h-42.03125v112h45.191406l24.664063 19.726562c9.886719 7.914063 22.3125 12.273438 34.976562 12.273438h72.199219l70.96875 75.695312 70.96875-75.695312h72.199219c12.664062 0 25.089843-4.359375 34.984375-12.273438l24.65625-19.726562h45.191406v-112h-42.03125zm-443.71875-91.726563c0-65.136718 52.992188-118.128906 118.128906-118.128906h7.863282c34.519531 0 67.214843 15.03125 89.679687 41.246094l16.328125 19.050781 16.328125-19.039063c22.464844-26.226562 55.160156-41.257812 89.679687-41.257812h7.863282c65.136718 0 118.128906 52.992188 118.128906 118.128906 0 30.117188-11.34375 58.816406-31.953125 80.792969l-7.976563 8.503906-13.933593-11.144531c-9.878907-7.921875-22.304688-12.28125-34.96875-12.28125h-47.167969c-13.230469 0-24 10.769531-24 24v8h-40c-13.230469 0-24 10.769531-24 24 0 3.160156.648438 6.160156 1.761719 8.929688-3.691407 1-7.007813 2.832031-9.761719 5.316406-2.761719-2.484375-6.078125-4.316406-9.761719-5.316406 1.113281-2.769532 1.761719-5.769532 1.761719-8.929688 0-13.230469-10.769531-24-24-24h-40v-8c0-13.230469-10.769531-24-24-24h-47.167969c-12.664062 0-25.089843 4.359375-34.984375 12.273438l-13.925781 11.140624-7.976563-8.503906c-20.601562-21.972656-31.945312-50.664062-31.945312-80.78125zm63.847656 217.101563-29.039062-23.230469h-34.808594v-80h34.808594l29.039062-23.230469c7.074219-5.65625 15.945313-8.769531 24.984375-8.769531h47.167969c4.40625 0 8 3.59375 8 8v8h-40v16h96c4.40625 0 8 3.59375 8 8s-3.59375 8-8 8h-80v16h96c4.40625 0 8 3.59375 8 8s-3.59375 8-8 8h-96v16h80c4.40625 0 8 3.59375 8 8s-3.59375 8-8 8h-80v16h48c4.40625 0 8 3.59375 8 8s-3.59375 8-8 8h-79.167969c-9.039062 0-17.910156-3.113281-24.984375-8.769531zm116.046875 21.488281c7.195313-4.144531 12.105469-11.832031 12.105469-20.71875 0-2.816406-.574219-5.488281-1.472656-8h9.472656c13.230469 0 24-10.769531 24-24 0-3.160156-.648438-6.160156-1.761719-8.929688 3.691407-1 7-2.832031 9.761719-5.308593 2.761719 2.484375 6.078125 4.316406 9.761719 5.316406-1.113281 2.761719-1.761719 5.761719-1.761719 8.921875 0 13.230469 10.769531 24 24 24h9.472656c-.898437 2.511719-1.472656 5.183594-1.472656 8 0 8.886719 4.910156 16.574219 12.113281 20.71875l-52.113281 55.585938zm284.105469-44.71875h-34.808594l-29.039062 23.230469c-7.074219 5.65625-15.945313 8.769531-24.984375 8.769531h-79.167969c-4.40625 0-8-3.59375-8-8s3.59375-8 8-8h48v-16h-80c-4.40625 0-8-3.59375-8-8s3.59375-8 8-8h80v-16h-96c-4.40625 0-8-3.59375-8-8s3.59375-8 8-8h96v-16h-80c-4.40625 0-8-3.59375-8-8s3.59375-8 8-8h96v-16h-40v-8c0-4.40625 3.59375-8 8-8h47.167969c9.046875 0 17.921875 3.113281 24.992187 8.769531l29.03125 23.230469h34.808594zm0 0"/><path d="m448 136c0 12.792969-2.679688 25.128906-7.976562 36.664062l14.535156 6.671876c6.273437-13.640626 9.441406-28.222657 9.441406-43.335938 0-57.34375-46.65625-104-104-104v16c48.519531 0 88 39.480469 88 88zm0 0"/></svg>