<svg height="498pt" viewBox="-1 0 498 498.768" width="498pt" xmlns="http://www.w3.org/2000/svg"><path d="m360.382812 408v16h-41.199218c5.921875-6.558594 9.199218-15.121094 9.199218-24v-4c0-19.921875-16.078124-36-36-36-7.757812 0-15.359374 2.558594-21.597656 7.199219l-22.402344 16.800781-22.398437-16.800781c-6.242187-4.640625-13.839844-7.199219-21.601563-7.199219-9.917968 0-18.957031 4-25.4375 10.558594-6.5625 6.480468-10.5625 15.519531-10.5625 25.441406v4c0 8.878906 3.28125 17.441406 9.203126 24h-41.203126v-16h-48v-37.441406c0-20.636719 13.203126-38.957032 32.800782-45.519532l87.199218-29.039062 40 40 40-40 87.203126 29.039062c19.597656 6.5625 32.796874 24.882813 32.796874 45.519532v37.441406zm0 0" fill="#b4dd7f"/><g fill="#f0d0b4"><path d="m408.382812 408v56c0 4.398438-3.597656 8-8 8h-104c-6.640624 0-12.640624-2.71875-16.957031-7.039062l-2.402343-2.722657c-2.878907-4-4.640626-8.878906-4.640626-14.238281 0-13.28125 10.722657-24 24-24h64v-16zm0 0"/><path d="m224.382812 448c0 5.28125-1.757812 10.238281-4.640624 14.160156-.71875.960938-1.519532 1.917969-2.398438 2.800782-4.320312 4.320312-10.320312 7.039062-16.960938 7.039062h-104c-4.398437 0-8-3.601562-8-8v-56h48v16h64c13.28125 0 24 10.71875 24 24zm0 0"/><path d="m288.382812 272v24l-40 40-40-40v-24l1.203126-2.078125c11.519531 6.476563 24.71875 10.078125 38.796874 10.078125 14.082032 0 27.28125-3.601562 38.800782-10.078125zm0 0"/><path d="m168.382812 200c0 5.519531.5625 10.878906 1.601563 16h-1.601563c-8.796874 0-16.796874-3.601562-22.640624-9.359375-.15625-.160156-.238282-.242187-.316407-.402344-5.601562-5.757812-9.042969-13.597656-9.042969-22.238281 0-17.679688 14.320313-32 32-32zm0 0"/><path d="m360.382812 184c0 17.679688-14.320312 32-32 32h-1.597656c1.039063-5.121094 1.597656-10.480469 1.597656-16v-48c8.800782 0 16.800782 3.601562 22.640626 9.359375 5.761718 5.839844 9.359374 13.839844 9.359374 22.640625zm0 0"/><path d="m328.382812 152v48c0 5.519531-.558593 10.878906-1.597656 16-4.722656 23.28125-19.519531 42.800781-39.601562 53.921875-11.519532 6.476563-24.71875 10.078125-38.800782 10.078125-14.078124 0-27.277343-3.601562-38.796874-10.078125-6.5625-3.601563-12.480469-8.082031-17.761719-13.363281-10.878907-10.878906-18.640625-24.878906-21.839844-40.558594-1.039063-5.121094-1.601563-10.480469-1.601563-16v-64h16c25.203126 0 48.882813-11.839844 64-32 7.519532 10.078125 17.28125 18.078125 28.242188 23.519531 10.960938 5.519531 23.117188 8.480469 35.757812 8.480469h16zm0 0"/></g><path d="m360.382812 120v64c0-8.800781-3.597656-16.800781-9.359374-22.640625-5.839844-5.757813-13.839844-9.359375-22.640626-9.359375v-16h-16c-12.640624 0-24.796874-2.960938-35.757812-8.480469-10.960938-5.441406-20.722656-13.441406-28.242188-23.519531-15.117187 20.160156-38.796874 32-64 32h-16v16c-17.679687 0-32 14.320312-32 32v-64c0-61.839844 50.160157-112 112-112 30.882813 0 58.882813 12.558594 79.203126 32.800781 8.957031 9.039063 16.476562 19.597657 22 31.199219 6.957031 14.558594 10.796874 30.878906 10.796874 48zm0 0" fill="#b27946"/><path d="m145.425781 206.238281c-.882812 1.28125-1.839843 2.5625-2.960937 3.683594l-62.082032 62.078125-62.078124-62.078125c-6.320313-6.320313-9.921876-14.960937-9.921876-24 0-18.722656 15.203126-33.921875 33.921876-33.921875 9.039062 0 17.679687 3.601562 24 9.921875l14.078124 14.078125 14.082032-14.078125c6.320312-6.320313 14.960937-9.921875 24-9.921875 6.558594 0 12.71875 2 17.917968 5.199219v26.800781c0 8.640625 3.441407 16.480469 9.042969 22.238281zm0 0" fill="#ef7385"/><path d="m488.382812 89.921875c0 9.039063-3.597656 17.679687-9.917968 24l-62.082032 62.078125-56-56c0-17.121094-3.839843-33.441406-10.796874-48 6.078124-9.601562 16.636718-16 28.71875-16 9.039062 0 17.679687 3.601562 24 9.921875l14.078124 14.078125 14.082032-14.078125c6.320312-6.320313 14.960937-9.921875 24-9.921875 18.71875 0 33.917968 15.199219 33.917968 33.921875zm0 0" fill="#ef7385"/><path d="m328.382812 396v4c0 8.878906-3.277343 17.441406-9.199218 24h-22.800782c-13.277343 0-24 10.71875-24 24 0 5.359375 1.761719 10.238281 4.640626 14.238281l-28.640626 25.761719-28.640624-25.839844c2.882812-3.921875 4.640624-8.878906 4.640624-14.160156 0-13.28125-10.71875-24-24-24h-22.796874c-5.921876-6.558594-9.203126-15.121094-9.203126-24v-4c0-9.921875 4-18.960938 10.5625-25.441406 6.480469-6.558594 15.519532-10.558594 25.4375-10.558594 7.761719 0 15.359376 2.558594 21.601563 7.199219l22.398437 16.800781 22.402344-16.800781c6.238282-4.640625 13.839844-7.199219 21.597656-7.199219 19.921876 0 36 16.078125 36 36zm0 0" fill="#ef7385"/><path d="m248.382812 232c-8.824218 0-16-7.175781-16-16h-16c0 17.648438 14.351563 32 32 32 17.648438 0 32-14.351562 32-32h-16c0 8.824219-7.175781 16-16 16zm0 0"/><path d="m216.382812 160c0 4.417969-3.582031 8-8 8-4.417968 0-8-3.582031-8-8s3.582032-8 8-8c4.417969 0 8 3.582031 8 8zm0 0"/><path d="m296.382812 160c0 4.417969-3.582031 8-8 8-4.417968 0-8-3.582031-8-8s3.582032-8 8-8c4.417969 0 8 3.582031 8 8zm0 0"/><path d="m454.449219 48c-11.203125 0-21.738281 4.359375-29.65625 12.28125l-8.410157 8.40625-8.40625-8.40625c-7.921874-7.921875-18.449218-12.28125-29.65625-12.28125-10.207031 0-19.761718 3.726562-27.25 10.230469-21.023437-34.824219-59.117187-58.230469-102.6875-58.230469-66.167968 0-120 53.832031-120 120v25.3125c-3.253906-.816406-6.574218-1.3125-9.933593-1.3125-11.203125 0-21.738281 4.359375-29.65625 12.28125l-8.410157 8.40625-8.40625-8.40625c-7.921874-7.921875-18.449218-12.28125-29.65625-12.28125-23.121093 0-41.9375 18.816406-41.9375 41.9375 0 11.199219 4.359376 21.734375 12.28125 29.65625l67.71875 67.71875 65.976563-65.976562c5.074219 3.359374 10.984375 5.433593 17.3125 6.183593 5.792969 20.839844 19.03125 38.578125 36.710937 50.136719v16.574219l-81.710937 27.242187c-22.894531 7.632813-38.289063 28.984375-38.289063 53.121094v93.40625c0 8.824219 7.175782 16 16 16h104c7.394532 0 14.121094-2.625 19.546876-6.847656l28.453124 25.617187 28.449219-25.617187c5.425781 4.222656 12.160157 6.847656 19.550781 6.847656h104c8.824219 0 16-7.175781 16-16v-93.40625c0-24.144531-15.390624-45.496094-38.285156-53.121094l-81.714844-27.242187v-16.574219c17.679688-11.558594 30.914063-29.304688 36.714844-50.136719 19.8125-2.359375 35.285156-19.078125 35.285156-39.519531v-44.6875l48 48 67.722657-67.71875c7.917969-7.921875 12.277343-18.457031 12.277343-29.65625 0-23.121094-18.816406-41.9375-41.933593-41.9375zm-206.066407-32c57.34375 0 104 46.65625 104 104v32.207031c-4.671874-3.535156-10.054687-6.183593-16-7.390625v-24.816406h-16v8h-8c-22.535156 0-44.070312-10.769531-57.597656-28.808594l-6.402344-8.519531-6.398437 8.519531c-13.527344 18.039063-35.0625 28.808594-57.601563 28.808594h-8v-8h-16v24.808594c-5.941406 1.214844-11.328124 3.855468-16 7.390625v-32.199219c0-57.34375 46.65625-104 104-104zm-224.40625 188.28125c-4.898437-4.898438-7.59375-11.417969-7.59375-18.34375 0-14.304688 11.632813-25.9375 25.9375-25.9375 6.925782 0 13.449219 2.695312 18.34375 7.59375l19.71875 19.71875 19.722657-19.71875c7.292969-7.289062 18.621093-9.496094 28.277343-5.488281v21.894531c0 8.136719 2.472657 15.695312 6.664063 22.023438l-54.664063 54.664062zm120.40625-20.28125c0-10.414062 6.714844-19.214844 16-22.527344v38.527344c0 2.238281.167969 4.433594.335938 6.632812-9.460938-3.21875-16.335938-12.097656-16.335938-22.632812zm56 280h-104v-48h32v16h72c8.824219 0 16 7.175781 16 16s-7.175781 16-16 16zm29.441407-3.472656c1.640625-3.847656 2.558593-8.078125 2.558593-12.527344 0-17.648438-14.351562-32-32-32h-18.824218c-3.292969-4.6875-5.175782-10.238281-5.175782-16.03125v-3.96875c0-15.441406 12.5625-28 28-28 6.023438 0 11.984376 1.992188 16.808594 5.601562l27.191406 20.398438 27.203126-20.398438c4.8125-3.609374 10.773437-5.601562 16.796874-5.601562 15.441407 0 28 12.558594 28 28v3.96875c0 5.792969-1.878906 11.34375-5.175781 16.03125h-18.824219c-17.648437 0-32 14.351562-32 32 0 4.449219.921876 8.679688 2.5625 12.527344l-18.5625 16.703125zm66.558593 3.472656c-8.824218 0-16-7.175781-16-16s7.175782-16 16-16h72v-16h32v48zm76.648438-131.351562c16.359375 5.457031 27.351562 20.703124 27.351562 37.945312v29.40625h-32v-32h-16v48h-19.046874c1.984374-5.0625 3.046874-10.488281 3.046874-16.03125v-3.96875c0-24.257812-19.742187-44-44-44-9.460937 0-18.832031 3.128906-26.398437 8.808594l-17.601563 13.191406-17.589843-13.191406c-7.578125-5.679688-16.945313-8.808594-26.410157-8.808594-24.253906 0-44 19.742188-44 44v3.96875c0 5.542969 1.066407 10.96875 3.050782 16.03125h-19.050782v-48h-16v32h-32v-29.40625c0-17.242188 10.992188-32.496094 27.351563-37.945312l82.488281-27.496094 42.160156 42.160156 42.160157-42.160156zm-92.648438-39.960938-32 32-32-32v-10.800781c9.9375 3.898437 20.707032 6.113281 32 6.113281 11.296876 0 22.066407-2.214844 32-6.113281zm-32-20.6875c-39.703124 0-72-32.296875-72-72v-56h8c24.226563 0 47.496094-10.167969 64-27.617188 16.503907 17.449219 39.777344 27.617188 64 27.617188h8v56c0 39.703125-32.292968 72-72 72zm87.664063-65.367188c.167969-2.199218.335937-4.394531.335937-6.632812v-38.527344c9.289063 3.3125 16 12.113282 16 22.527344 0 10.535156-6.871093 19.414062-16.335937 22.632812zm136.746094-98.351562-56.410157 56.40625-48.175781-48.175781c-.4375-15.304688-3.648437-29.9375-9.328125-43.296875 4.898438-5.734375 11.832032-9.214844 19.441406-9.214844 6.925782 0 13.449219 2.695312 18.34375 7.59375l19.71875 19.71875 19.722657-19.71875c4.894531-4.898438 11.414062-7.59375 18.34375-7.59375 14.304687 0 25.933593 11.632812 25.933593 25.9375 0 6.925781-2.695312 13.445312-7.589843 18.34375zm0 0"/></svg>