<svg height="496pt" viewBox="-15 0 495 496" width="496pt" xmlns="http://www.w3.org/2000/svg"><path d="m416.5 304c0 101.621094-82.378906 184-184 184s-184-82.378906-184-184 82.378906-184 184-184 184 82.378906 184 184zm0 0" fill="#3bafda"/><g fill="#b4dd7f"><path d="m348.820312 408h35.441407c-33.121094 48.320312-88.722657 80-151.761719 80-52.800781 0-100.320312-22.238281-133.761719-57.839844l26.800781-22.320312c12.242188-10.238282 27.679688-15.839844 43.679688-15.839844h4.402344c12.320312 0 24.480468-3.359375 35.117187-9.761719l7.523438-4.476562c10.636719-6.402344 22.796875-9.761719 35.117187-9.761719h.800782c18.160156 0 35.519531 7.199219 48.320312 20 6.398438 6.398438 13.921875 11.359375 22.160156 14.800781 8.238282 3.4375 17.039063 5.199219 26.160156 5.199219zm0 0"/><path d="m108.339844 168.238281 76.238281 68.640625-.078125.082032v1.757812c0 15.121094-9.679688 28.480469-24 33.28125-7.199219 2.398438-13.121094 6.960938-17.359375 12.800781-4.242187 5.757813-6.640625 12.960938-6.640625 20.480469v.078125c0 14.480469-5.761719 28.402344-16 38.640625s-24.160156 16-38.640625 16h-24.640625c-5.679688-17.679688-8.71875-36.480469-8.71875-56 0-53.761719 23.039062-102.078125 59.839844-135.761719zm0 0"/><path d="m416.5 304c0 8.160156-.558594 16.160156-1.601562 24h-6.320313c-9.839844 0-19.277344-2.800781-27.277344-7.761719-8-4.957031-14.722656-12.078125-19.121093-20.878906-2.960938-5.917969-7.441407-10.71875-12.878907-14.078125-5.441406-3.359375-11.839843-5.28125-18.402343-5.28125-7.839844 0-15.117188 2.558594-21.039063 7.039062-6 4.480469-10.480469 10.800782-12.640625 18.320313-5.117188 18.160156-21.757812 30.640625-40.558594 30.640625h-22.398437c-9.28125 0-17.761719-3.761719-23.839844-9.921875-6.160156-6.078125-9.921875-14.558594-9.921875-23.839844 0-4.078125.800781-8.238281 2.238281-12.078125l10.5625-27.441406 19.199219 17.28125 124.160156-111.761719c36.800782 33.683594 59.839844 82 59.839844 135.761719zm0 0"/></g><path d="m392.5 94v3.679688c0 24.398437-10.320312 47.601562-28.480469 63.921874l-7.359375 6.636719-124.160156 111.761719-19.199219-17.28125-28.722656-25.839844-76.238281-68.640625-7.359375-6.636719c-18.160157-16.320312-28.480469-39.523437-28.480469-63.921874v-3.679688c0-23.761719 9.601562-45.28125 25.199219-60.800781 15.519531-15.597657 37.039062-25.199219 60.800781-25.199219 16.960938 0 33.519531 5.039062 47.679688 14.398438l26.320312 17.601562 26.320312-17.601562c14.160157-9.359376 30.71875-14.398438 47.679688-14.398438 47.519531 0 86 38.480469 86 86zm0 0" fill="#ef7385"/><path d="m112.5 97.710938v-3.742188c0-1.710938.097656-3.417969.28125-5.082031l-15.898438-1.773438c-.253906 2.253907-.382812 4.542969-.382812 6.855469v3.742188c0 2.425781.144531 4.832031.425781 7.21875l15.886719-1.851563c-.207031-1.773437-.3125-3.566406-.3125-5.367187zm0 0"/><path d="m117.011719 143.777344 78.136719 70.320312 10.703124-11.890625-78.136718-70.320312c-4.734375-4.261719-8.472656-9.367188-11.109375-15.183594l-14.570313 6.609375c3.5625 7.832031 8.601563 14.710938 14.976563 20.464844zm0 0"/><path d="m368.410156 168.441406.984375-.882812c19.769531-17.789063 31.105469-43.246094 31.105469-69.847656v-3.742188c0-51.816406-42.152344-93.96875-93.96875-93.96875-18.617188 0-36.640625 5.457031-52.128906 15.785156l-21.902344 14.597656-21.902344-14.605468c-15.488281-10.320313-33.511718-15.777344-52.128906-15.777344-51.816406 0-93.96875 42.152344-93.96875 93.96875v3.742188c0 26.601562 11.335938 52.058593 31.113281 69.847656l.984375.882812c-35.746094 35.871094-56.097656 84.773438-56.097656 135.558594 0 105.871094 86.136719 192 192 192s192-86.128906 192-192c0-50.785156-20.351562-99.6875-56.089844-135.558594zm40.089844 135.558594c0 5.375-.28125 10.6875-.753906 15.945312-16.390625-.296874-31.0625-9.480468-38.414063-24.183593-7.335937-14.65625-22.0625-23.761719-38.449219-23.761719-19.085937 0-36.078124 12.816406-41.320312 31.167969-4.183594 14.625-17.71875 24.832031-32.917969 24.832031h-22.410156c-14.191406 0-25.734375-11.542969-25.734375-25.734375 0-3.167969.574219-6.28125 1.71875-9.242187l6.378906-16.574219 15.902344 14.3125 123.992188-111.59375c33.121093 32.9375 52.007812 78.007812 52.007812 124.832031zm-308.992188 115.078125c-13.023437-15.023437-23.535156-32.261719-30.910156-51.078125h13.269532c16.730468 0 32.457031-6.511719 44.289062-18.34375s18.34375-27.550781 18.34375-44.359375c0-11.679687 7.449219-22.007813 18.527344-25.703125 13.023437-4.347656 22.855468-14.464844 27.121094-26.945312l13.710937 12.335937-8.574219 22.296875c-1.847656 4.796875-2.785156 9.839844-2.785156 14.984375 0 23.015625 18.71875 41.734375 41.734375 41.734375h22.410156c22.3125 0 42.167969-14.984375 48.304688-36.441406 3.285156-11.511719 13.949219-19.558594 25.933593-19.558594 10.289063 0 19.527344 5.710938 24.128907 14.910156 9.761719 19.515625 28.960937 31.816406 50.558593 32.882813-4.277343 23.328125-13.148437 45.054687-25.671874 64.207031h-31.109376c-16.105468 0-31.242187-6.273438-42.632812-17.65625-14.410156-14.40625-33.566406-22.34375-53.945312-22.34375h-.800782c-13.820312 0-27.390625 3.761719-39.246094 10.871094l-7.558593 4.535156c-9.371094 5.625-20.097657 8.59375-31.015625 8.59375h-4.371094c-17.808594 0-35.152344 6.28125-48.832031 17.679688zm-19.007812-321.367187v-3.742188c0-42.992188 34.976562-77.96875 77.96875-77.96875 15.445312 0 30.398438 4.527344 43.246094 13.097656l30.785156 20.519532 30.785156-20.519532c12.847656-8.570312 27.800782-13.097656 43.246094-13.097656 42.992188 0 77.96875 34.976562 77.96875 77.96875v3.742188c0 22.074218-9.40625 43.191406-25.816406 57.960937l-126.183594 113.566406-126.183594-113.574219c-16.410156-14.761718-25.816406-35.878906-25.816406-57.953124zm28.007812 81.457031 67.863282 61.078125c-.632813 11.035156-7.824219 20.632812-18.40625 24.160156-17.625 5.882812-29.464844 22.3125-29.464844 40.960938 0 12.457031-4.847656 24.167968-13.65625 32.976562s-20.511719 13.65625-32.976562 13.65625h-18.664063c-4.335937-15.273438-6.703125-31.359375-6.703125-48 0-46.824219 18.886719-91.894531 52.007812-124.832031zm123.992188 300.832031c-47.320312 0-90.296875-18.800781-121.960938-49.289062l20.089844-16.742188c10.816406-9.007812 24.519532-13.96875 38.589844-13.96875h4.359375c13.824219 0 27.394531-3.761719 39.25-10.871094l7.558594-4.535156c9.378906-5.625 20.105469-8.59375 31.023437-8.59375h.800782c16.105468 0 31.242187 6.273438 42.632812 17.65625 14.410156 14.40625 33.566406 22.34375 53.945312 22.34375h19.375c-32.3125 39.0625-81.128906 64-135.664062 64zm0 0"/><path d="m352.5 96h16c0-35.289062-28.710938-64-64-64v16c26.472656 0 48 21.527344 48 48zm0 0"/><path d="m.5 448h16v16h-16zm0 0"/><path d="m16.5 464h16v16h-16zm0 0"/><path d="m32.5 448h16v16h-16zm0 0"/><path d="m16.5 432h16v16h-16zm0 0"/><path d="m416.5 160h16v16h-16zm0 0"/><path d="m432.5 176h16v16h-16zm0 0"/><path d="m448.5 160h16v16h-16zm0 0"/><path d="m432.5 144h16v16h-16zm0 0"/><path d="m400.5 432h16v16h-16zm0 0"/><path d="m416.5 448h16v16h-16zm0 0"/><path d="m432.5 432h16v16h-16zm0 0"/><path d="m416.5 416h16v16h-16zm0 0"/><path d="m.5 32h16v16h-16zm0 0"/><path d="m16.5 48h16v16h-16zm0 0"/><path d="m32.5 32h16v16h-16zm0 0"/><path d="m16.5 16h16v16h-16zm0 0"/></svg>